<svg width="42" height="30" viewBox="0 0 42 30" fill="none" xmlns="http://www.w3.org/2000/svg">
<path d="M41.851 17.6371C38.6076 12.8264 35.363 8.01746 32.1173 3.21038C31.9076 2.90047 31.9039 2.90047 31.6887 3.21038L27.7045 9.11899C27.4656 9.47291 27.4619 9.47475 27.2158 9.11899L21.2621 0.287258C21.0068 -0.092345 21.005 -0.0941788 20.757 0.272587L14.8344 9.04196C14.5408 9.47842 14.539 9.48025 14.2527 9.0548L10.3085 3.20672C10.1006 2.90047 10.0952 2.90047 9.89641 3.19571C6.63725 8.02236 3.37992 12.8514 0.124409 17.683C0.0733519 17.7582 -0.0433505 17.8333 0.0168242 17.936C0.0769988 18.0387 0.199172 17.9764 0.292169 17.9837C0.385166 17.9911 0.445341 17.9837 0.521926 17.9837H41.6595C41.7726 17.9837 41.9312 18.0479 41.9895 17.9214C42.037 17.8205 41.9111 17.7252 41.851 17.6371ZM19.4386 17.5289C19.3675 17.6646 19.1815 17.5913 19.0466 17.5913C16.0695 17.5913 13.0911 17.5913 10.1116 17.5913C7.10163 17.5913 4.09107 17.5913 1.07991 17.5913C0.963207 17.5913 0.804565 17.6518 0.73892 17.5491C0.673275 17.4464 0.815506 17.3364 0.877504 17.241C3.868 12.8056 6.85971 8.37139 9.85264 3.93841C10.0897 3.58632 10.0897 3.58632 10.3322 3.93841C13.3142 8.35428 16.2925 12.7701 19.2672 17.186C19.3511 17.2997 19.5061 17.4207 19.4386 17.5289ZM32.3653 17.5491C32.3014 17.65 32.141 17.5913 32.0243 17.5913C30.0792 17.5913 28.1305 17.5913 26.1782 17.5913C24.2289 17.5913 22.2796 17.5913 20.3303 17.5913C20.228 17.6034 20.1244 17.5835 20.0337 17.5342C19.943 17.485 19.8695 17.4089 19.8234 17.3162C19.7377 17.1622 19.7869 17.1218 19.9365 17.1328H20.2009C23.8247 17.1328 27.4492 17.1328 31.0742 17.1328C31.1891 17.1328 31.3459 17.1915 31.4116 17.0833C31.4772 16.9751 31.3405 16.8706 31.2766 16.7752C28.7979 13.0953 26.3174 9.41607 23.835 5.7374C23.6345 5.44032 23.6308 5.44032 23.4266 5.7374L17.9562 13.8484C17.7246 14.1932 17.7228 14.1914 17.4948 13.8484C16.6469 12.5923 15.8026 11.3343 14.942 10.0836C14.8786 10.0107 14.8437 9.91722 14.8437 9.82043C14.8437 9.72364 14.8786 9.63013 14.942 9.55727C16.9077 6.66226 18.8667 3.76053 20.819 0.852078C21.0287 0.540327 21.0998 0.734713 21.2129 0.903425L29.7832 13.6082C30.6026 14.8185 31.4189 16.0301 32.2321 17.2429C32.296 17.3382 32.4455 17.4336 32.3725 17.5491H32.3653ZM41.2529 17.5363C41.1945 17.6463 41.0559 17.5913 40.952 17.5913C39.6756 17.5913 38.39 17.5913 37.1081 17.5913H33.297C33.199 17.6013 33.1 17.5963 33.0035 17.5766C32.9237 17.5536 32.8533 17.5057 32.8025 17.4397C32.7517 17.3738 32.723 17.2933 32.7208 17.2098C32.7208 17.065 32.9196 17.1328 33.0272 17.1328C35.3369 17.1328 37.6466 17.1328 39.9564 17.1328C40.0694 17.1328 40.2281 17.1952 40.2901 17.076C40.3521 16.9568 40.2153 16.8614 40.1497 16.7661C38.1438 13.7794 36.1326 10.7908 34.1158 7.80046C33.8678 7.4337 33.866 7.4337 33.6289 7.78762C32.4777 9.49186 31.3277 11.1949 30.1789 12.8967C29.9765 13.1938 29.9729 13.1956 29.7705 12.8967C29.1359 11.9596 28.5086 11.017 27.8649 10.0872C27.8005 10.0149 27.7648 9.92122 27.7648 9.82409C27.7648 9.72697 27.8005 9.63326 27.8649 9.56094C29.1584 7.66109 30.4439 5.75757 31.7216 3.85039C31.8839 3.60649 31.9531 3.6505 32.0863 3.86139C35.1072 8.33838 38.1244 12.8117 41.138 17.2814C41.1963 17.3602 41.3094 17.4409 41.2602 17.5363H41.2529Z" fill="white"/>
<path d="M12.9864 25.9162C12.9864 27.079 12.9864 28.2418 12.9864 29.4046C12.9864 29.7078 12.9078 29.8133 12.6519 29.7884C12.2805 29.7653 11.9075 29.7692 11.5361 29.7884C11.2969 29.7999 11.225 29.7001 11.2267 29.4315C11.2267 27.6796 11.2267 25.9297 11.2267 24.1797C11.2267 23.7192 11.2267 23.7192 10.8352 23.7173C10.5141 23.7173 10.1929 23.7288 9.87173 23.7173C9.66096 23.7173 9.5907 23.7998 9.59237 24.0378C9.59237 24.9971 9.59237 25.9565 9.53717 26.9044C9.51421 27.4567 9.42817 28.0031 9.28123 28.5296C9.14754 28.9884 8.88305 29.3821 8.53042 29.6474C8.17779 29.9127 7.75755 30.034 7.33746 29.9918C7.31015 29.9937 7.28278 29.989 7.25717 29.9779C7.23155 29.9669 7.20826 29.9497 7.18883 29.9276C7.1694 29.9055 7.15426 29.879 7.14442 29.8497C7.13457 29.8204 7.13024 29.789 7.13171 29.7577C7.09157 29.3586 7.04975 28.9575 7.00458 28.5584C6.98618 28.3838 7.01796 28.2783 7.19695 28.2553C7.50809 28.215 7.66198 27.9809 7.73391 27.647C7.84799 27.0496 7.90409 26.4395 7.90119 25.828C7.92294 24.6901 7.92628 23.5485 7.91792 22.4087C7.91792 22.0883 8.00658 21.9981 8.27924 22C9.72898 22.0115 11.1759 22.0115 12.6201 22C12.9028 22 13.0048 22.0787 12.9998 22.4202C12.9764 23.5849 12.9864 24.7535 12.9864 25.9162Z" fill="white"/>
<path d="M17.0728 25.202C17.2606 24.9441 17.4483 24.6862 17.6361 24.4263C18.1562 23.7117 18.68 23.001 19.1907 22.2804C19.2446 22.192 19.3199 22.1202 19.409 22.0725C19.4981 22.0247 19.5977 22.0027 19.6976 22.0087C20.2834 22.0225 20.8692 22.0087 21.4569 22.0087C21.5433 22.0087 21.6597 21.9693 21.7085 22.0579C21.7573 22.1465 21.6484 22.2548 21.5902 22.3198C20.7378 23.3888 19.8854 24.4598 19.0198 25.517C18.9812 25.549 18.9499 25.5899 18.9284 25.6364C18.9069 25.6829 18.8957 25.734 18.8957 25.7857C18.8957 25.8374 18.9069 25.8884 18.9284 25.935C18.9499 25.9815 18.9812 26.0224 19.0198 26.0544C19.9586 27.2357 20.8974 28.4385 21.8362 29.6355C21.9038 29.7202 22.0408 29.8068 21.9883 29.9249C21.9357 30.043 21.7836 29.9859 21.6766 29.9879C21.0795 29.9879 20.4806 29.9879 19.8835 29.9879C19.7786 29.9967 19.6734 29.976 19.5786 29.9279C19.4839 29.8798 19.4031 29.806 19.3447 29.7143C18.6631 28.7712 17.9684 27.84 17.2794 26.9069C17.2042 26.8065 17.1254 26.71 17.0409 26.6017C16.9282 26.7159 16.9752 26.8399 16.9752 26.9482C16.9752 27.846 16.9639 28.7437 16.9752 29.6414C16.9752 29.9072 16.8888 29.9958 16.641 29.9879C16.2016 29.9722 15.7623 29.9761 15.3267 29.9879C15.107 29.9879 15 29.9308 15 29.6729C15.0075 27.2147 15.0075 24.757 15 22.3001C15 22.0914 15.0657 21.9969 15.2741 22.0008C15.7473 22.0008 16.2129 22.0008 16.6936 22.0008C16.9245 22.0008 16.9789 22.1091 16.9771 22.3257C16.9771 23.1407 16.9771 23.9558 16.9771 24.7708V25.1528L17.0728 25.202Z" fill="white"/>
<path d="M29.9044 29.5367C29.0756 27.2784 28.2544 25.0183 27.4045 22.7659C27.0602 21.8457 27.3102 22.025 26.3179 22.0033H26.0064C25.741 22.0033 25.4737 22.0033 25.2103 22.0033C25.1265 21.9915 25.0415 22.0112 24.9708 22.0586C24.9001 22.1061 24.8485 22.1781 24.8256 22.2615C23.9026 24.7365 22.975 27.2088 22.043 29.6785C21.9545 29.9091 21.993 30.0037 22.2488 29.9978C22.768 29.9978 23.2872 29.9879 23.8064 29.9978C23.8932 30.0077 23.9804 29.9844 24.0514 29.9324C24.1224 29.8804 24.1721 29.8033 24.191 29.716C24.291 29.4263 24.4199 29.1465 24.518 28.8568C24.5382 28.7715 24.5889 28.697 24.6601 28.6481C24.7313 28.5992 24.8178 28.5795 24.9026 28.5928C25.3641 28.6046 25.8276 28.5928 26.2891 28.5928C26.6449 28.5928 27.0583 28.4647 27.3429 28.648C27.6275 28.8312 27.6371 29.316 27.7929 29.6549C27.8023 29.6766 27.81 29.699 27.816 29.7219C27.8234 29.7658 27.8393 29.8078 27.8627 29.8454C27.8861 29.883 27.9167 29.9154 27.9525 29.9407C27.9883 29.9661 28.0287 29.9838 28.0713 29.9929C28.1139 30.002 28.1579 30.0024 28.2006 29.9938C28.6621 29.982 29.1237 29.9938 29.5871 29.9938C30.0506 29.9938 30.0717 29.9978 29.9044 29.5367ZM26.6352 27.0164H25.3891C25.2833 27.0164 25.1968 26.9868 25.2353 26.8528C25.4795 26.0961 25.7295 25.3414 25.9756 24.5867H26.0718L26.7929 26.8233C26.841 26.9848 26.7564 27.0223 26.6333 27.0223L26.6352 27.0164Z" fill="white"/>
<path d="M0 27.3027C0.641746 27.9012 1.31451 28.1481 2.10361 28.0509C2.4239 28.0197 2.7311 27.912 2.99749 27.7377C3.26388 27.5633 3.48107 27.3277 3.62945 27.052C3.80588 26.7416 3.77293 26.6929 3.41425 26.6929C2.71433 26.6929 2.01636 26.6817 1.31839 26.6929C1.06053 26.6929 0.963589 26.62 0.979099 26.3675C0.995318 26.0559 0.995318 25.7438 0.979099 25.4323C0.967466 25.2078 1.06441 25.1405 1.28543 25.1442C1.96014 25.1536 2.6426 25.1442 3.30955 25.1442C3.41812 25.1442 3.56935 25.2041 3.62558 25.0787C3.6818 24.9534 3.56159 24.8711 3.49955 24.7795C2.83842 23.8031 1.31451 23.6329 0.321843 24.4185C0.236535 24.4858 0.178371 24.6055 0.00387762 24.6186C0.00387762 23.9097 0.00387762 23.2102 0.00387762 22.5106C0.00387762 22.3872 0.11439 22.3535 0.21133 22.3124C1.90197 21.5885 4.05987 22.1609 5.18632 23.6329C6.31277 25.1049 6.27399 27.2241 5.04285 28.5839C3.86017 29.8932 1.80503 30.3608 0.19582 29.7062C0.0756136 29.6576 0.00193881 29.6014 0.00193881 29.4649C0 28.7672 0 28.0845 0 27.3027Z" fill="white"/>
<path d="M33.9537 22.0458C33.0785 21.9611 32.1937 22.0241 31.3137 22.0025C31.0671 22.0025 31.001 22.1108 31.0042 22.3963C31.0139 23.5894 31.0042 24.7807 31.0042 25.9739V29.5869C31.005 29.5987 31.005 29.6105 31.0042 29.6223C30.98 29.8862 31.0574 30.0161 31.2959 29.9984C31.6731 29.9787 32.0502 29.9827 32.4242 29.9984C32.6353 29.9984 32.7175 29.9177 32.7143 29.6519C32.703 29.0041 32.7143 28.3543 32.7143 27.7046C32.7143 27.4486 32.7804 27.3462 32.9963 27.3482C33.3638 27.3482 33.7329 27.3482 34.0988 27.3127C35.1786 27.2143 35.7943 26.5074 35.9587 25.204C36.1876 23.3847 35.4575 22.1895 33.9537 22.0458ZM33.5379 25.6391C32.7175 25.7907 32.7175 25.7907 32.7191 24.6802C32.7191 24.4322 32.7191 24.186 32.7191 23.938C32.7191 23.7588 32.7771 23.678 32.927 23.6859C33.1285 23.6997 33.3332 23.6859 33.5347 23.7155C34.0182 23.7863 34.2245 24.0955 34.2229 24.6999C34.2213 25.3044 34.015 25.5525 33.5379 25.6391Z" fill="white"/>
<path d="M38.5627 26.8655C38.5627 25.9551 38.5627 25.0447 38.5627 24.1342C38.5627 23.8623 38.4945 23.7401 38.2326 23.7637C37.9115 23.7834 37.5868 23.7637 37.2638 23.7637C37.0683 23.7637 36.9965 23.677 37.0001 23.4681C37.0073 23.074 37.0073 22.6838 37.0001 22.2976C37.0001 22.0887 37.0647 22 37.262 22C38.7582 22 40.2532 22 41.7469 22C41.9263 22 42.0035 22.0709 41.9999 22.27C41.9927 22.672 41.9927 23.074 41.9999 23.476C41.9999 23.6948 41.9138 23.7677 41.7272 23.7618C41.4366 23.7618 41.1442 23.7815 40.8553 23.7618C40.5324 23.7322 40.4284 23.8465 40.432 24.213C40.4481 25.9866 40.432 27.7602 40.432 29.5338C40.432 29.9969 40.432 29.9969 40.0014 29.9989C39.6247 29.9989 39.248 29.9831 38.8712 29.9989C38.6093 30.0127 38.5393 29.8984 38.5429 29.6264C38.5752 28.7101 38.5627 27.7878 38.5627 26.8655Z" fill="white"/>
<path d="M18.9822 17.9362C18.9198 18.0447 18.7584 17.9819 18.6429 17.9819C16.5952 17.9819 14.5462 17.9819 12.496 17.9819C10.4458 17.9819 8.38648 17.9819 6.31795 17.9819C6.21343 17.9819 6.06856 18.0428 6.01354 17.9305C5.95853 17.8182 6.08506 17.7288 6.14374 17.6394C8.18904 14.5093 10.2343 11.38 12.2796 8.25121C12.4997 7.91626 12.5015 7.91626 12.7234 8.25121C14.765 11.3749 16.8048 14.496 18.8428 17.6146C18.907 17.7136 19.05 17.8163 18.9822 17.9362Z" fill="white"/>
</svg>
