<svg width="204" height="39" viewBox="0 0 204 39" fill="none" xmlns="http://www.w3.org/2000/svg">
<path d="M130.516 8.25V31H128.609V8.25H130.516ZM138.312 8.25V9.90625H120.828V8.25H138.312ZM142.25 16.8906V31H140.391V14.0938H142.203L142.25 16.8906ZM148.234 13.9688L148.188 15.6875C147.979 15.6562 147.776 15.6302 147.578 15.6094C147.38 15.5885 147.167 15.5781 146.938 15.5781C146.125 15.5781 145.411 15.7292 144.797 16.0312C144.193 16.3229 143.682 16.7344 143.266 17.2656C142.849 17.7865 142.531 18.401 142.312 19.1094C142.094 19.8073 141.969 20.5573 141.938 21.3594L141.25 21.625C141.25 20.5208 141.365 19.4948 141.594 18.5469C141.823 17.599 142.172 16.7708 142.641 16.0625C143.12 15.3438 143.719 14.7865 144.438 14.3906C145.167 13.9844 146.021 13.7812 147 13.7812C147.24 13.7812 147.474 13.8021 147.703 13.8438C147.943 13.875 148.12 13.9167 148.234 13.9688ZM160.828 27.9688V19.25C160.828 18.4479 160.661 17.7552 160.328 17.1719C159.995 16.5885 159.505 16.1406 158.859 15.8281C158.214 15.5156 157.417 15.3594 156.469 15.3594C155.594 15.3594 154.812 15.5156 154.125 15.8281C153.448 16.1302 152.911 16.5417 152.516 17.0625C152.13 17.5729 151.938 18.1406 151.938 18.7656L150.062 18.75C150.062 18.1146 150.219 17.5 150.531 16.9062C150.844 16.3125 151.286 15.7812 151.859 15.3125C152.432 14.8438 153.115 14.474 153.906 14.2031C154.708 13.9219 155.589 13.7812 156.547 13.7812C157.755 13.7812 158.818 13.9844 159.734 14.3906C160.661 14.7969 161.385 15.4062 161.906 16.2188C162.427 17.0312 162.688 18.0521 162.688 19.2812V27.4531C162.688 28.0365 162.729 28.6406 162.812 29.2656C162.906 29.8906 163.036 30.4062 163.203 30.8125V31H161.219C161.094 30.625 160.995 30.1562 160.922 29.5938C160.859 29.0208 160.828 28.4792 160.828 27.9688ZM161.266 21.1562L161.297 22.5938H157.625C156.667 22.5938 155.807 22.6823 155.047 22.8594C154.297 23.026 153.661 23.276 153.141 23.6094C152.62 23.9323 152.219 24.3229 151.938 24.7812C151.667 25.2396 151.531 25.7604 151.531 26.3438C151.531 26.9479 151.682 27.5 151.984 28C152.297 28.5 152.734 28.901 153.297 29.2031C153.87 29.4948 154.547 29.6406 155.328 29.6406C156.37 29.6406 157.286 29.4479 158.078 29.0625C158.88 28.6771 159.542 28.1719 160.062 27.5469C160.583 26.9219 160.932 26.2396 161.109 25.5L161.922 26.5781C161.786 27.099 161.536 27.6354 161.172 28.1875C160.818 28.7292 160.354 29.2396 159.781 29.7188C159.208 30.1875 158.531 30.5729 157.75 30.875C156.979 31.1667 156.104 31.3125 155.125 31.3125C154.021 31.3125 153.057 31.1042 152.234 30.6875C151.422 30.2708 150.786 29.7031 150.328 28.9844C149.88 28.2552 149.656 27.4323 149.656 26.5156C149.656 25.6823 149.833 24.9375 150.188 24.2812C150.542 23.6146 151.052 23.0521 151.719 22.5938C152.396 22.125 153.208 21.7708 154.156 21.5312C155.115 21.2812 156.188 21.1562 157.375 21.1562H161.266ZM172.438 29.2031L177.859 14.0938H179.781L173.453 31H172.094L172.438 29.2031ZM167.531 14.0938L173.016 29.25L173.312 31H171.938L165.594 14.0938H167.531ZM189.172 31.3125C188.068 31.3125 187.052 31.1094 186.125 30.7031C185.208 30.2969 184.406 29.724 183.719 28.9844C183.042 28.2448 182.516 27.3698 182.141 26.3594C181.776 25.3385 181.594 24.224 181.594 23.0156V22.3438C181.594 21.0417 181.786 19.8646 182.172 18.8125C182.557 17.7604 183.089 16.8594 183.766 16.1094C184.443 15.3594 185.214 14.7865 186.078 14.3906C186.953 13.9844 187.87 13.7812 188.828 13.7812C189.901 13.7812 190.854 13.974 191.688 14.3594C192.521 14.7344 193.219 15.2708 193.781 15.9688C194.354 16.6562 194.786 17.474 195.078 18.4219C195.37 19.3594 195.516 20.3958 195.516 21.5312V22.6719H182.719V21.0781H193.656V20.8594C193.635 19.9115 193.443 19.026 193.078 18.2031C192.724 17.3698 192.193 16.6927 191.484 16.1719C190.776 15.651 189.891 15.3906 188.828 15.3906C188.036 15.3906 187.307 15.5573 186.641 15.8906C185.984 16.224 185.417 16.7031 184.938 17.3281C184.469 17.9427 184.104 18.6771 183.844 19.5312C183.594 20.375 183.469 21.3125 183.469 22.3438V23.0156C183.469 23.9531 183.604 24.8281 183.875 25.6406C184.156 26.4427 184.552 27.151 185.062 27.7656C185.583 28.3802 186.198 28.8594 186.906 29.2031C187.615 29.5469 188.396 29.7188 189.25 29.7188C190.25 29.7188 191.135 29.5365 191.906 29.1719C192.677 28.7969 193.37 28.2083 193.984 27.4062L195.156 28.3125C194.792 28.8542 194.333 29.3542 193.781 29.8125C193.24 30.2708 192.589 30.6354 191.828 30.9062C191.068 31.1771 190.182 31.3125 189.172 31.3125ZM201.281 7V31H199.422V7H201.281Z" fill="#363C49"/>
<path d="M22.7545 28.0777C23.0377 27.9678 23.2642 27.803 23.2642 27.5833C23.2642 26.4848 21.7917 25.7708 21.7917 20.4432V9.8428C21.7917 4.13068 19.1297 1 12.0501 1C7.689 1 2.08192 2.31818 2.08192 3.58144C2.08192 3.80114 2.13855 4.02083 2.25183 4.24053L3.38457 7.59091C3.44121 7.81061 3.66776 8.14015 3.95094 8.14015C4.68723 8.14015 7.80227 6.49243 10.974 6.49243C14.5421 6.49243 14.9952 8.08523 14.9952 10.5568V12.2595C10.5209 12.2595 0.212891 12.2595 0.212891 21.5417C0.212891 26.7045 3.49785 30 8.70847 30C12.9563 30 14.9386 27.803 16.0713 26.7045C16.3545 28.0777 17.204 30 17.7138 30C17.9403 30 18.2235 29.8352 18.4501 29.7803L22.7545 28.0777ZM14.9952 22.8049C14.3155 23.464 12.843 24.892 10.7474 24.892C8.59519 24.892 7.00935 23.2992 7.00935 21.1572C7.00935 16.3239 13.5793 16.7633 14.9952 16.7633V22.8049Z" fill="#FF741F"/>
<path d="M49.0874 24.4527C49.142 24.3428 49.3059 24.1231 49.3059 23.8485C49.3059 23.6837 49.3059 23.2992 48.2679 23.2992H35.8122L48.1586 6.76705V2.48296C48.1586 2.15341 47.667 1.93371 47.2299 1.93371H29.9121C29.3111 1.93371 29.1472 2.15341 29.1472 2.70265V6.98674C29.1472 7.37121 29.2565 7.70076 29.5297 7.70076H40.565L28 24.3977V28.517C28 28.8466 28.2185 29.0663 28.5463 29.0663H46.7383C46.9568 29.0663 47.3392 28.7917 47.5031 28.3523L49.0874 24.4527ZM64.0988 24.5076C60.2747 24.5076 59.6191 20.608 59.6191 15.5C59.6191 10.392 60.3293 6.49243 64.0988 6.49243C67.8683 6.49243 68.5785 10.392 68.5785 15.5C68.5785 20.6629 67.9229 24.5076 64.0988 24.5076ZM75.9536 15.5C75.9536 6.6572 71.4193 1 64.0988 1C56.7237 1 52.244 6.6572 52.244 15.5C52.244 24.3428 56.7237 30 64.0988 30C71.4739 30 75.9536 24.3428 75.9536 15.5ZM89.0406 9.95265C89.7508 9.18371 91.499 7.31629 93.1925 7.31629C94.449 7.31629 95.4324 7.92046 95.7602 7.92046C95.9787 7.92046 96.1426 7.59091 96.1972 7.42614L97.8907 2.8125C97.9454 2.70265 98 2.48296 98 2.26326C98 1.54924 96.4157 1 94.8314 1C91.1166 1 89.0952 4.07576 88.0573 5.33902C87.7841 3.47159 86.6915 1 86.0359 1C85.8174 1 85.5443 1.16477 85.3257 1.2197L81.1738 2.92235C80.9007 3.0322 80.6821 3.19697 80.6821 3.41667C80.6821 4.67993 82.1025 5.66856 82.1025 11.7102V28.2973C82.1025 28.9015 82.2118 29.0663 82.8674 29.0663H88.2758C88.9313 29.0663 89.0406 28.9015 89.0406 28.2973V9.95265Z" fill="#363C49"/>
<rect x="109" y="2" width="2" height="29" fill="#FF741F"/>
</svg>
