<svg width="52" height="30" viewBox="0 0 52 30" fill="none" xmlns="http://www.w3.org/2000/svg">
<path d="M15.0034 30C23.2838 30 30.0001 23.2769 30.0001 14.9966C30.0001 6.71621 23.2839 0 15.0034 0C6.71621 0 0 6.71621 0 14.9966C0 23.2769 6.71621 30 15.0034 30Z" fill="white"/>
<path d="M36.8169 30C45.0972 30 51.8135 23.2769 51.8135 14.9966C51.8135 6.71621 45.0973 0 36.8169 0C28.5296 0 21.8203 6.71621 21.8203 14.9966C21.8203 23.2769 28.5296 30 36.8169 30Z" fill="white" fill-opacity="0.8"/>
<path d="M25.8953 25.2905C23.3707 22.6013 21.8203 18.979 21.8203 15.0001C21.8203 11.0623 23.3433 7.47434 25.8199 4.79883L26.1354 4.96348C28.5297 7.62526 29.991 11.1446 29.991 15.0001C29.991 18.8761 28.516 22.4023 26.1081 25.071L25.8953 25.2905Z" fill="white"/>
<path d="M2.94727 11.2363H4.25758L5.93835 15.428L7.44075 11.2363H8.82652V16.8206H7.74946V12.677L6.3088 16.8206H5.49243L4.05177 12.7319V16.8206H2.94727V11.2363Z" fill="#131921"/>
<path d="M14.3372 16.8189V12.5449H13.418V16.8189H14.3372Z" fill="#131921"/>
<path d="M20.479 16.8194V11.3105H19.5117V16.8194H20.479Z" fill="#131921"/>
<path d="M18.9609 12.5449V13.5671H21.1151V12.5449H18.9609Z" fill="#131921"/>
<path d="M40.7864 16.8189V12.5449H39.8672V16.8189H40.7864Z" fill="#131921"/>
<path d="M49.1009 16.8227V11.4785H48.1816V16.8227H49.1009Z" fill="#131921"/>
<path d="M28.2758 12.5471H27.3223V16.821H28.2895V13.9945C28.5159 13.5349 29.195 13.4388 29.3048 13.4388V12.5195C29.0784 12.5195 28.3032 12.691 28.2757 13.1095V12.5471H28.2758Z" fill="#131921"/>
<path d="M42.896 12.5471H41.9355V16.821H42.9098V13.9945C43.1293 13.5349 43.8154 13.4388 43.9183 13.4388V12.5195C43.6986 12.5195 42.9235 12.691 42.896 13.1095V12.5471Z" fill="#131921"/>
<path d="M17.2137 13.7699H18.1536C18.1536 13.0221 17.6733 12.5625 16.8844 12.5625C16.0955 12.5625 15.4712 12.9741 15.4712 13.8934C15.4712 14.8126 16.4385 14.943 16.5963 14.9842C16.7884 15.039 17.3166 15.1008 17.3166 15.6839C17.3166 15.9035 17.0559 15.9583 16.8295 15.9583C16.61 15.9583 16.3836 15.7868 16.3836 15.533H15.334C15.334 16.4934 16.0818 16.8776 16.8295 16.8776C17.5773 16.8776 18.2908 16.2738 18.2908 15.5466C18.2908 14.8333 17.591 14.4147 17.0422 14.3324C16.2121 14.2157 16.2944 13.4954 16.7746 13.4954C17.2274 13.4955 17.2 13.6944 17.2137 13.7699Z" fill="#131921"/>
<path d="M34.453 15.2908C34.11 15.723 33.5818 15.9974 32.9918 15.9974C31.9627 15.9974 31.1327 15.1673 31.1327 14.1519C31.1327 13.1229 31.9627 12.2928 32.9918 12.2928C33.5749 12.2928 34.1032 12.5604 34.4393 12.9857H35.6467C35.2008 11.9292 34.1649 11.2363 32.9918 11.2363C31.3796 11.2363 30.0762 12.5398 30.0762 14.1519C30.0762 15.7504 31.3796 17.0607 32.9918 17.0607C34.1855 17.0607 35.2145 16.3199 35.6673 15.2908H34.453Z" fill="#131921"/>
<path d="M46.8956 16.927C48.1236 16.927 49.1252 15.9253 49.1252 14.7042C49.1252 13.4693 48.1235 12.4746 46.8956 12.4746V13.4213C47.6022 13.4213 48.1785 13.9976 48.1785 14.7042C48.1785 15.4039 47.6022 15.9802 46.8956 15.9802V16.927ZM46.8956 16.927V15.9802C46.189 15.9802 45.6127 15.4039 45.6127 14.7042C45.6127 13.9976 46.189 13.4213 46.8956 13.4213V12.4746C45.6676 12.4746 44.666 13.4693 44.666 14.7042C44.666 15.9253 45.6676 16.927 46.8956 16.927Z" fill="#131921"/>
<path d="M38.5812 16.927C39.816 16.927 40.8107 15.9253 40.8107 14.7042C40.8107 13.4693 39.816 12.4746 38.5812 12.4746V13.4213C39.2878 13.4213 39.864 13.9976 39.864 14.7042C39.864 15.4039 39.2878 15.9802 38.5812 15.9802V16.927ZM38.5812 12.4747C37.3532 12.4747 36.3516 13.4694 36.3516 14.7043C36.3516 15.9254 37.3533 16.9271 38.5812 16.9271V15.9803C37.8745 15.9803 37.2983 15.404 37.2983 14.7043C37.2983 13.9977 37.8745 13.4214 38.5812 13.4214V12.4747Z" fill="#131921"/>
<path d="M24.0712 15.1401H26.2459C26.2528 15.0785 26.2597 15.0098 26.2597 14.948V14.7628C26.2254 13.7681 25.6011 12.5469 24.0713 12.5332V13.5691C24.5927 13.5691 25.1072 13.8092 25.1072 14.2826H24.0713V15.1401H24.0712ZM24.0712 16.9376C24.9356 16.9239 26.1499 16.3613 26.1499 15.641H24.9905C24.9905 15.8126 24.5446 15.9703 24.0712 15.9635V16.9376ZM23.0078 15.1401H24.0712V14.2826H23.0353C23.0353 13.8092 23.5498 13.5691 24.0712 13.5691V12.5333C24.0643 12.5333 24.0506 12.5333 24.0438 12.5333C22.658 12.5333 21.9033 13.6858 21.8965 14.8109V14.8521C21.9171 15.9155 22.5962 16.9377 24.03 16.9377C24.0437 16.9377 24.0575 16.9377 24.0712 16.9377V15.9634C23.5498 15.9566 23.0078 15.7438 23.0078 15.1401Z" fill="#131921"/>
<path d="M12.1378 16.927C13.3658 16.927 14.3674 15.9253 14.3674 14.7042C14.3674 13.4693 13.3658 12.4746 12.1378 12.4746V13.4213C12.8444 13.4213 13.4207 13.9976 13.4207 14.7042C13.4207 15.4039 12.8444 15.9802 12.1378 15.9802V16.927ZM12.1378 16.927V15.9802C11.4312 15.9802 10.8549 15.4039 10.8549 14.7042C10.8549 13.9976 11.4312 13.4213 12.1378 13.4213V12.4746C10.9029 12.4746 9.9082 13.4693 9.9082 14.7042C9.9082 15.9253 10.9029 16.927 12.1378 16.927Z" fill="#131921"/>
</svg>
