<svg width="75" height="30" viewBox="0 0 75 30" fill="none" xmlns="http://www.w3.org/2000/svg">
<path d="M33.5756 24.75H28.5L31.6747 5.25H36.75L33.5756 24.75Z" fill="white"/>
<path d="M52.5 5.36547C51.4644 4.95415 49.8218 4.5 47.7907 4.5C42.6057 4.5 38.9545 7.268 38.9321 11.2254C38.889 14.1452 41.5463 15.7669 43.5337 16.7404C45.565 17.7352 46.2555 18.3845 46.2555 19.2713C46.2349 20.6332 44.6141 21.2609 43.1024 21.2609C41.0062 21.2609 39.883 20.9373 38.1761 20.1796L37.4847 19.8548L36.75 24.4181C37.9814 24.9797 40.2502 25.4782 42.6057 25.5C48.1149 25.5 51.7015 22.7748 51.744 18.5576C51.765 16.2434 50.3619 14.4703 47.3368 13.0213C45.5004 12.0912 44.3758 11.464 44.3758 10.5123C44.3973 9.6471 45.327 8.76094 47.4 8.76094C49.1069 8.71753 50.361 9.12828 51.3111 9.53931L51.7859 9.75517L52.5 5.36547Z" fill="white"/>
<path d="M59.0845 17.842C59.5148 16.7218 61.1706 12.386 61.1706 12.386C61.1489 12.4276 61.6001 11.2451 61.8581 10.5191L62.2233 12.1993C62.2233 12.1993 63.2128 16.8671 63.4277 17.842C62.6111 17.842 60.1165 17.842 59.0845 17.842ZM65.5345 5.25H61.4927C60.2463 5.25 59.2993 5.60237 58.7616 6.86795L51 24.75H56.4828C56.4828 24.75 57.3854 22.3432 57.5795 21.8248C58.1809 21.8248 63.5146 21.8248 64.2884 21.8248C64.4384 22.5095 64.9118 24.75 64.9118 24.75H69.75L65.5345 5.25Z" fill="white"/>
<path d="M23.8525 5.25L18.8535 18.5613L18.3073 15.8616C17.3831 12.7465 14.4846 9.36203 11.25 7.67919L15.8289 24.75H21.2267L29.25 5.25H23.8525Z" fill="white"/>
<path d="M13.7861 5.25H5.33644L5.25 5.64024C11.8413 7.243 16.2065 11.1064 18 15.75L16.1631 6.87351C15.8607 5.63997 14.9314 5.29069 13.7861 5.25Z" fill="white" fill-opacity="0.8"/>
</svg>
