<svg width="18" height="18" viewBox="0 0 18 18" fill="none" xmlns="http://www.w3.org/2000/svg">
<path fill-rule="evenodd" clip-rule="evenodd" d="M8.16671 2.39168V0.708344C6.49171 0.87501 4.96671 1.54168 3.73337 2.55001L4.91671 3.74168C5.84171 3.02501 6.95004 2.54168 8.16671 2.39168ZM14.2667 2.55001C13.0334 1.54168 11.5084 0.87501 9.83337 0.708344V2.39168C11.05 2.54168 12.1584 3.02501 13.0834 3.74168L14.2667 2.55001ZM17.2917 8.16668H15.6084C15.4584 6.95001 14.975 5.84168 14.2584 4.91668L15.45 3.73334C16.4584 4.96668 17.125 6.49168 17.2917 8.16668ZM3.74171 4.91668L2.55004 3.73334C1.54171 4.96668 0.875041 6.49168 0.708374 8.16668H2.39171C2.54171 6.95001 3.02504 5.84168 3.74171 4.91668ZM0.708374 9.83334H2.39171C2.54171 11.05 3.02504 12.1583 3.74171 13.075L2.55004 14.2667C1.54171 13.0333 0.875041 11.5083 0.708374 9.83334ZM11.5 9.00001C11.5 7.61668 10.3834 6.50001 9.00004 6.50001C7.61671 6.50001 6.50004 7.61668 6.50004 9.00001C6.50004 10.3833 7.61671 11.5 9.00004 11.5C10.3834 11.5 11.5 10.3833 11.5 9.00001ZM15.45 14.275L14.2584 13.0833C14.975 12.1583 15.4584 11.05 15.6084 9.84168H17.2917C17.125 11.5083 16.4584 13.0417 15.45 14.275ZM9.83337 15.6083V17.2917C11.5084 17.125 13.0334 16.4583 14.2667 15.45L13.075 14.2583C12.1584 14.975 11.05 15.4583 9.83337 15.6083ZM8.16671 17.2917C6.50004 17.125 4.96671 16.4583 3.73337 15.45L4.91671 14.2583C5.84171 14.975 6.95004 15.4583 8.16671 15.6083V17.2917Z" fill="#363C49"/>
</svg>
