<svg width="24" height="24" viewBox="0 0 24 24" fill="none" xmlns="http://www.w3.org/2000/svg">
<g id="work_24px">
<path id="icon/action/work_24px" fill-rule="evenodd" clip-rule="evenodd" d="M16 6.5H20C21.11 6.5 22 7.39 22 8.5V19.5C22 20.61 21.11 21.5 20 21.5H4C2.89 21.5 2 20.61 2 19.5L2.01 8.5C2.01 7.39 2.89 6.5 4 6.5H8V4.5C8 3.39 8.89 2.5 10 2.5H14C15.11 2.5 16 3.39 16 4.5V6.5ZM10 6.5H14V4.5H10V6.5Z" fill="$sc"/>
<path id="1x" d="M10.4199 9.42188V18H9.33594V10.7754L7.15039 11.5723V10.5938L10.25 9.42188H10.4199ZM14.457 11.6602L15.8457 13.9688L17.252 11.6602H18.5234L16.4492 14.7891L18.5879 18H17.334L15.8691 15.6211L14.4043 18H13.1445L15.2773 14.7891L13.209 11.6602H14.457Z" fill="white"/>
</g>
</svg>
