<svg width="22" height="22" viewBox="0 0 22 22" fill="none" xmlns="http://www.w3.org/2000/svg">
<path fill-rule="evenodd" clip-rule="evenodd" d="M0.419983 1.83L1.82998 0.419998L21.58 20.17L20.17 21.58L18.17 19.58H15.5V21H13.5V19.58H8V21H6V19.58H2.42998C1.31998 19.58 0.429983 18.69 0.429983 17.58L0.439983 6.58C0.439983 5.47 1.31998 4.58 2.42998 4.58H3.16998L0.419983 1.83ZM8.42998 2.58H12.43V4.58H8.82998L10.83 6.58H18.43V14.18L20.43 16.18V6.58C20.43 5.47 19.54 4.58 18.43 4.58H14.43V2.58C14.43 1.47 13.54 0.579998 12.43 0.579998H8.42998C7.43998 0.579998 6.62998 1.28 6.46998 2.22L8.42998 4.18V2.58ZM2.42998 6.58V17.58H16.17L5.16998 6.58H2.42998Z" fill="#D80000"/>
</svg>
