<svg width="24" height="24" viewBox="0 0 24 24" fill="none" xmlns="http://www.w3.org/2000/svg">
<g id="work_outline_24px">
<path id="icon/action/work_outline_24px" fill-rule="evenodd" clip-rule="evenodd" d="M20 6.5C21.11 6.5 22 7.39 22 8.5V19.5C22 20.61 21.11 21.5 20 21.5H16.5V23H14.5V21.5H9V23H7V21.5H4C2.89 21.5 2 20.61 2 19.5L2.01 8.5C2.01 7.39 2.89 6.5 4 6.5H8V4.5C8 3.39 8.89 2.5 10 2.5H14C15.11 2.5 16 3.39 16 4.5V6.5H20ZM14 6.5V4.5H10V6.5H14ZM4 8.5V19.5H20V8.5H4Z" fill="$sc"/>
<path id="20" d="M11.5488 17.1094V18H5.96484V17.2207L8.75977 14.1094C9.10352 13.7266 9.36914 13.4023 9.55664 13.1367C9.74805 12.8672 9.88086 12.627 9.95508 12.416C10.0332 12.2012 10.0723 11.9824 10.0723 11.7598C10.0723 11.4785 10.0137 11.2246 9.89648 10.998C9.7832 10.7676 9.61523 10.584 9.39258 10.4473C9.16992 10.3105 8.90039 10.2422 8.58398 10.2422C8.20508 10.2422 7.88867 10.3164 7.63477 10.4648C7.38477 10.6094 7.19727 10.8125 7.07227 11.0742C6.94727 11.3359 6.88477 11.6367 6.88477 11.9766H5.80078C5.80078 11.4961 5.90625 11.0566 6.11719 10.6582C6.32812 10.2598 6.64062 9.94336 7.05469 9.70898C7.46875 9.4707 7.97852 9.35156 8.58398 9.35156C9.12305 9.35156 9.58398 9.44727 9.9668 9.63867C10.3496 9.82617 10.6426 10.0918 10.8457 10.4355C11.0527 10.7754 11.1562 11.1738 11.1562 11.6309C11.1562 11.8809 11.1133 12.1348 11.0273 12.3926C10.9453 12.6465 10.8301 12.9004 10.6816 13.1543C10.5371 13.4082 10.3672 13.6582 10.1719 13.9043C9.98047 14.1504 9.77539 14.3926 9.55664 14.6309L7.27148 17.1094H11.5488ZM18.0645 13.0547V14.3555C18.0645 15.0547 18.002 15.6445 17.877 16.125C17.752 16.6055 17.5723 16.9922 17.3379 17.2852C17.1035 17.5781 16.8203 17.791 16.4883 17.9238C16.1602 18.0527 15.7891 18.1172 15.375 18.1172C15.0469 18.1172 14.7441 18.0762 14.4668 17.9941C14.1895 17.9121 13.9395 17.7812 13.7168 17.6016C13.498 17.418 13.3105 17.1797 13.1543 16.8867C12.998 16.5938 12.8789 16.2383 12.7969 15.8203C12.7148 15.4023 12.6738 14.9141 12.6738 14.3555V13.0547C12.6738 12.3555 12.7363 11.7695 12.8613 11.2969C12.9902 10.8242 13.1719 10.4453 13.4062 10.1602C13.6406 9.87109 13.9219 9.66406 14.25 9.53906C14.582 9.41406 14.9531 9.35156 15.3633 9.35156C15.6953 9.35156 16 9.39258 16.2773 9.47461C16.5586 9.55273 16.8086 9.67969 17.0273 9.85547C17.2461 10.0273 17.4316 10.2578 17.584 10.5469C17.7402 10.832 17.8594 11.1816 17.9414 11.5957C18.0234 12.0098 18.0645 12.4961 18.0645 13.0547ZM16.9746 14.5312V12.873C16.9746 12.4902 16.9512 12.1543 16.9043 11.8652C16.8613 11.5723 16.7969 11.3223 16.7109 11.1152C16.625 10.9082 16.5156 10.7402 16.3828 10.6113C16.2539 10.4824 16.1035 10.3887 15.9316 10.3301C15.7637 10.2676 15.5742 10.2363 15.3633 10.2363C15.1055 10.2363 14.877 10.2852 14.6777 10.3828C14.4785 10.4766 14.3105 10.627 14.1738 10.834C14.041 11.041 13.9395 11.3125 13.8691 11.6484C13.7988 11.9844 13.7637 12.3926 13.7637 12.873V14.5312C13.7637 14.9141 13.7852 15.252 13.8281 15.5449C13.875 15.8379 13.9434 16.0918 14.0332 16.3066C14.123 16.5176 14.2324 16.6914 14.3613 16.8281C14.4902 16.9648 14.6387 17.0664 14.8066 17.1328C14.9785 17.1953 15.168 17.2266 15.375 17.2266C15.6406 17.2266 15.873 17.1758 16.0723 17.0742C16.2715 16.9727 16.4375 16.8145 16.5703 16.5996C16.707 16.3809 16.8086 16.1016 16.875 15.7617C16.9414 15.418 16.9746 15.0078 16.9746 14.5312Z" fill="$sc"/>
</g>
</svg>
